<?xml version="1.0" standalone="no"?>
<!DOCTYPE svg PUBLIC "-//W3C//DTD SVG 20010904//EN"
 "http://www.w3.org/TR/2001/REC-SVG-20010904/DTD/svg10.dtd">
<svg version="1.0" xmlns="http://www.w3.org/2000/svg"
 width="800.000000pt" height="500.000000pt" viewBox="0 0 800.000000 500.000000"
 preserveAspectRatio="xMidYMid meet">

<g transform="translate(0.000000,500.000000) scale(0.100000,-0.100000)"
fill="#000000" stroke="none">
<path d="M3510 4169 c-487 -55 -941 -328 -1209 -729 -69 -104 -149 -258 -186
-362 l-27 -76 -86 -21 c-320 -79 -569 -195 -681 -316 -49 -53 -113 -183 -131
-266 -21 -94 -9 -212 28 -289 42 -87 116 -168 216 -235 101 -67 185 -106 336
-155 112 -37 358 -95 367 -86 2 2 -7 26 -20 53 -13 26 -32 69 -42 96 -10 26
-24 47 -32 47 -32 0 -240 75 -322 115 -152 77 -208 163 -147 228 34 37 83 55
210 77 312 55 842 106 1481 142 458 26 1908 14 2154 -18 l44 -6 -6 70 c-8 84
-13 100 -35 106 -74 22 -494 67 -827 88 -267 17 -1451 17 -1805 0 -433 -21
-1021 -61 -1145 -77 l-40 -6 30 26 c42 37 211 117 334 159 296 102 786 190
1341 241 497 45 1211 71 1698 61 245 -5 322 -3 322 6 0 6 -5 40 -11 74 l-11
63 -41 3 -42 3 -55 103 c-82 152 -172 273 -295 397 -306 306 -701 476 -1140
489 -77 3 -178 0 -225 -5z m199 -177 c37 -69 102 -445 127 -723 l6 -77 -146
-7 c-81 -4 -150 -5 -153 -1 -14 14 38 424 82 636 35 168 59 218 84 172z m-200
-67 c-44 -131 -88 -389 -114 -682 l-7 -72 -51 -5 c-187 -19 -449 -38 -455 -32
-10 11 54 192 110 307 122 255 279 429 468 518 35 17 65 29 66 28 2 -1 -6 -29
-17 -62z m434 24 c126 -64 242 -173 342 -324 75 -113 167 -305 190 -397 l7
-27 -245 -3 -246 -3 -6 65 c-27 282 -66 520 -108 648 -28 85 -25 86 66 41z
m-834 -77 c-163 -171 -292 -408 -369 -680 -19 -65 -28 -84 -44 -87 -12 -2 -87
-14 -168 -25 -81 -11 -179 -27 -218 -34 -84 -16 -83 -24 -14 121 158 333 467
625 805 762 41 17 78 31 83 31 4 0 -29 -40 -75 -88z m1203 42 c308 -136 557
-363 733 -667 15 -26 25 -50 23 -53 -3 -2 -101 -1 -218 3 l-212 8 -33 97 c-81
238 -206 447 -356 596 -34 34 -57 62 -51 62 6 0 58 -20 114 -46z"/>
<path d="M5472 3153 c19 -27 85 -121 147 -210 61 -89 116 -165 120 -168 5 -2
91 2 192 10 275 22 277 17 16 -30 -131 -23 -243 -47 -249 -53 -17 -17 -206
-287 -203 -290 2 -2 88 26 191 62 408 139 1042 358 1088 375 l48 18 -298 72
c-165 40 -472 115 -684 167 -212 52 -389 94 -393 94 -5 0 6 -21 25 -47z"/>
<path d="M5290 2923 c-74 -19 -114 -23 -177 -20 -46 2 -83 1 -83 -3 0 -3 19
-17 42 -30 32 -18 62 -25 125 -28 92 -5 119 -20 89 -50 -15 -15 -36 -17 -171
-14 -159 4 -244 -7 -300 -36 l-30 -16 75 -8 c41 -4 141 -18 222 -32 253 -44
381 -34 421 33 31 53 18 162 -25 208 -27 29 -62 29 -188 -4z"/>
<path d="M3922 2879 c-578 -15 -1099 -61 -1427 -125 -130 -25 -297 -66 -292
-71 3 -2 81 5 174 16 562 68 1338 110 2054 111 l187 0 6 31 c3 17 6 35 6 40 0
10 -279 9 -708 -2z"/>
<path d="M2168 2673 c7 -3 16 -2 19 1 4 3 -2 6 -13 5 -11 0 -14 -3 -6 -6z"/>
<path d="M3866 2288 c-3 -18 -7 -114 -10 -213 -5 -150 -23 -407 -29 -411 -1
-1 -63 1 -138 4 l-137 5 -6 61 c-13 125 -26 354 -26 464 l0 112 -75 0 -75 0 0
-87 c1 -86 13 -316 26 -479 l6 -81 -92 -13 c-52 -6 -145 -25 -209 -41 -107
-27 -117 -28 -128 -13 -38 52 -131 374 -152 529 -23 160 -16 145 -69 145 -26
0 -58 -3 -71 -7 -23 -6 -23 -8 -17 -77 16 -164 71 -386 140 -565 20 -51 36
-95 36 -97 0 -2 -28 -18 -62 -35 -35 -18 -86 -47 -115 -65 l-52 -33 -66 72
c-179 197 -306 444 -369 720 l-7 29 -62 -7 c-34 -4 -63 -9 -65 -10 -7 -6 38
-175 71 -265 286 -789 1114 -1247 1934 -1069 212 46 439 147 623 277 121 85
296 260 382 382 88 124 187 318 231 455 40 125 73 284 64 308 -5 13 -20 17
-64 17 l-58 0 -18 -94 c-51 -280 -195 -556 -403 -775 -53 -56 -105 -106 -116
-112 -15 -8 -29 -1 -74 35 -31 25 -69 54 -85 63 -16 10 -29 20 -29 24 0 3 18
44 39 90 80 171 146 412 176 642 8 65 15 125 15 133 0 11 -16 14 -73 14 l-73
0 -13 -107 c-25 -215 -90 -458 -170 -635 l-30 -66 -99 38 c-54 21 -142 49
-196 62 l-98 23 7 100 c20 302 25 389 25 483 l0 102 -70 0 -69 0 -5 -32z m-60
-771 c12 -12 -44 -337 -77 -449 -33 -113 -55 -102 -89 46 -25 103 -70 359 -70
395 l0 24 115 -5 c63 -2 118 -7 121 -11z m-381 -49 c14 -107 55 -305 79 -378
14 -41 24 -76 22 -77 -1 -2 -34 12 -72 31 -134 65 -254 174 -353 322 -39 58
-49 79 -39 85 33 19 260 66 325 68 30 1 31 0 38 -51z m780 -43 c38 -14 74 -30
79 -35 5 -5 -8 -32 -35 -67 -109 -145 -230 -246 -356 -296 l-42 -16 15 42 c23
66 51 184 68 287 9 52 18 109 21 127 l6 31 87 -23 c48 -13 118 -35 157 -50z
m-1281 -51 c17 -44 110 -168 189 -250 l88 -92 -53 19 c-93 35 -220 102 -320
168 -54 36 -98 68 -98 73 0 4 21 20 47 35 120 70 136 75 147 47z m1576 -111
c27 -20 50 -40 50 -44 0 -19 -316 -179 -352 -179 -6 0 17 27 50 60 34 33 87
94 118 135 34 46 62 74 70 71 7 -3 36 -22 64 -43z"/>
</g>
</svg>
